# xmcd
#
# Track frame offsets:
#	150
#	15890
#	27170
#	46830
#	65385
#	87010
#	100702
#	121927
#	137760
#	153607
#
# Disc length: 2304 seconds
#
# Revision: 1
# Processed by: cddbd v1.5.1PL2 Copyright (c) Steve Scherf et al.
# Submitted via: audiograbber 1.83.01
#
DISCID=6d08fe0a
DTITLE=MUZZIE BROWN and The Boys - Big Town
DYEAR=1993
DGENRE=Country
TTITLE0=Stick to your guns
TTITLE1=Weekend logger blues
TTITLE2=I'm not your little boy anymore
TTITLE3=When are we gonna eat
TTITLE4=The man with the big hat
TTITLE5=I've just got to be a cowboy
TTITLE6=Little town flirt
TTITLE7=Big town
TTITLE8=The cowboyys lament (Streets of Laredo)
TTITLE9=Gary's yodel
EXTD=
EXTT0=
EXTT1=
EXTT2=
EXTT3=
EXTT4=
EXTT5=
EXTT6=
EXTT7=
EXTT8=
EXTT9=
PLAYORDER=
